<svg width="80" height="80" viewBox="0 0 80 80" fill="none" xmlns="http://www.w3.org/2000/svg"><defs><radialGradient id="bonkGradient" cx="50%" cy="50%" r="50%"><stop offset="0%" stop-color="#FFD700"/><stop offset="100%" stop-color="#FFA500"/></radialGradient></defs><circle cx="40" cy="40" r="40" fill="url(#bonkGradient)"/><ellipse cx="33" cy="40" rx="15" ry="18" fill="#FFA500"/><ellipse cx="28" cy="45" rx="8" ry="6" fill="#FFF5F5"/><path d="M30 35 L32 35" stroke="black" stroke-width="1.5" stroke-linecap="round"/><path d="M36 35 L38 35" stroke="black" stroke-width="1.5" stroke-linecap="round"/><circle cx="26" cy="42" r="1" fill="black"/><ellipse cx="31" cy="32" rx="2" ry="1" fill="white"/><ellipse cx="37" cy="32" rx="2" ry="1" fill="white"/><path d="M22 25 Q18 18 22 12 Q26 18 22 25" fill="#FFA500"/><path d="M44 25 Q48 18 44 12 Q40 18 44 25" fill="#FFA500"/><text x="54" y="20" fill="red" font-size="12" font-weight="bold">!</text><text x="57" y="20" fill="red" font-size="12" font-weight="bold">!</text><text x="60" y="20" fill="red" font-size="12" font-weight="bold">!</text><circle cx="56" cy="30" r="1.5" fill="red"/><circle cx="56" cy="35" r="1.5" fill="red"/><circle cx="56" cy="40" r="1.5" fill="red"/><ellipse cx="33" cy="52" rx="10" ry="2" fill="rgba(0,0,0,0.15)"/></svg>
